# xmcd
#
# Track frame offsets:
#	150
#	18787
#	37445
#	52185
#	71332
#	86905
#	98847
#	116960
#	138590
#	155855
#	172012
#	190087
#
# Disc length: 2704 seconds
#
# Revision: 0
# Processed by: cddbd v1.5PL3 Copyright (c) Steve Scherf et al.
# Submitted via: dBpowerAMP V4.0
#
DISCID=b40a8e0c
DTITLE=Craig S. Ridenhour - Wait a Minute
DYEAR=1900
DGENRE=Country
TTITLE0=Sometimes
TTITLE1=Warrior
TTITLE2=Better Look Back
TTITLE3=Wall Walkin'
TTITLE4=She'll Smile
TTITLE5=Prayer Song
TTITLE6=Don't Run Away
TTITLE7=Educated Man
TTITLE8=Wanna Be There
TTITLE9=Jewelry Box
TTITLE10=With This Love
TTITLE11=My Way Home
EXTD=
EXTT0=
EXTT1=
EXTT2=
EXTT3=
EXTT4=
EXTT5=
EXTT6=
EXTT7=
EXTT8=
EXTT9=
EXTT10=
EXTT11=
PLAYORDER=
